<svg width="189" height="87" viewBox="0 0 189 87" fill="none" xmlns="http://www.w3.org/2000/svg">
<path d="M2.47461 39.1919L9.34517 44.3885L2.9497 47.3999L16.0696 52.9729L32.6247 64.7151L24.0574 66.3828L21.5044 73.3831" stroke="#B8D936" stroke-width="0.97" stroke-miterlimit="10"/>
<path d="M91.4786 45.5859C91.1326 46.0886 90.6617 46.4923 90.1124 46.7573C89.5631 47.0222 88.9544 47.1392 88.3461 47.0968H84.6133V36.7453H88.3461C88.9544 36.7029 89.5631 36.8199 90.1124 37.0849C90.6617 37.3498 91.1326 37.7535 91.4786 38.2562C92.1208 39.145 92.1312 40.2063 92.1312 41.9158C92.1312 43.6254 92.1208 44.6971 91.4786 45.5859ZM89.6931 39.1868C89.5098 38.9686 89.2776 38.7971 89.0153 38.6862C88.753 38.5754 88.4682 38.5283 88.1843 38.549H86.6494V45.2931H88.1843C88.4682 45.3138 88.753 45.2667 89.0153 45.1559C89.2776 45.045 89.5098 44.8735 89.6931 44.6553C90.0742 44.2057 90.116 43.5522 90.116 41.921C90.116 40.2899 90.0951 39.6521 89.6931 39.1868Z" fill="#687280"/>
<path d="M99.9414 47.0966L99.3306 45.2668H95.676L95.0495 47.0966H92.9612L96.7202 36.7451H98.2864L102.061 47.0966H99.9414ZM97.5346 39.7774L96.2242 43.5415H98.7928L97.5346 39.7774Z" fill="#687280"/>
<path d="M106.28 38.5488V47.0966H104.264V38.5488H101.581V36.7451H108.994V38.5488H106.28Z" fill="#687280"/>
<path d="M110.623 47.0966V36.7451H117.41V38.5488H112.623V40.9746H116.721V42.7887H112.644V45.3034H117.431V47.107L110.623 47.0966Z" fill="#687280"/>
<path d="M125.529 47.0966L121.42 40.7446V47.0966H119.405V36.7451H121.206L125.299 43.0867V36.7451H127.314V47.0966H125.529Z" fill="#687280"/>
<path d="M133.762 43.2017H131.773V47.0966H129.773V36.7451H133.783C135.929 36.7451 137.192 38.2142 137.192 39.976C137.192 41.7379 135.908 43.2017 133.762 43.2017ZM133.658 38.5488H131.773V41.3824H133.658C134.033 41.3824 134.393 41.2331 134.658 40.9674C134.923 40.7017 135.073 40.3413 135.073 39.9656C135.073 39.5898 134.923 39.2295 134.658 38.9638C134.393 38.6981 134.033 38.5488 133.658 38.5488Z" fill="#687280"/>
<path d="M145.111 46.0929C144.36 46.7944 143.371 47.1846 142.344 47.1846C141.317 47.1846 140.328 46.7944 139.577 46.0929C138.533 45.0473 138.533 43.8971 138.533 41.9104C138.533 39.9238 138.533 38.7736 139.577 37.728C140.33 37.0288 141.318 36.6401 142.344 36.6401C143.371 36.6401 144.359 37.0288 145.111 37.728C146.156 38.7736 146.156 39.9238 146.156 41.9104C146.156 43.8971 146.14 45.0629 145.111 46.0929ZM143.644 39.0141C143.481 38.8338 143.281 38.6909 143.057 38.5952C142.834 38.4996 142.593 38.4534 142.35 38.4599C142.105 38.4553 141.863 38.5023 141.638 38.5978C141.413 38.6932 141.211 38.8351 141.044 39.0141C140.669 39.448 140.554 39.9447 140.554 41.9209C140.554 43.8971 140.669 44.3781 141.044 44.812C141.21 44.9931 141.412 45.1373 141.637 45.2355C141.861 45.3336 142.104 45.3835 142.35 45.3818C142.594 45.3857 142.836 45.3368 143.059 45.2384C143.283 45.1401 143.482 44.9946 143.644 44.812C144.02 44.3781 144.166 43.8971 144.166 41.9209C144.166 39.9447 144.02 39.448 143.644 39.0141Z" fill="#687280"/>
<path d="M153.731 47.0966L151.711 42.9665H150.259V47.0966H148.244V36.7451H152.295C154.384 36.7451 155.647 38.1881 155.647 39.9133C155.664 40.5093 155.49 41.095 155.149 41.5843C154.809 42.0737 154.321 42.4408 153.757 42.6319L156.065 47.0966H153.731ZM152.165 38.5488H150.259V41.283H152.165C152.351 41.2946 152.538 41.2678 152.714 41.2043C152.889 41.1408 153.05 41.042 153.186 40.9139C153.322 40.7858 153.431 40.6312 153.505 40.4596C153.579 40.2879 153.617 40.1029 153.617 39.9159C153.617 39.7289 153.579 39.5439 153.505 39.3723C153.431 39.2006 153.322 39.046 153.186 38.9179C153.05 38.7898 152.889 38.691 152.714 38.6275C152.538 38.564 152.351 38.5372 152.165 38.5488Z" fill="#687280"/>
<path d="M161.479 38.5488V47.0966H159.464V38.5488H156.765V36.7451H164.178V38.5488H161.479Z" fill="#687280"/>
<path d="M170.699 47.0966L170.088 45.2668H166.433L165.812 47.0966H163.724L167.483 36.7451H169.049L172.823 47.0966H170.699ZM168.287 39.7774L166.981 43.5415H169.55L168.287 39.7774Z" fill="#687280"/>
<path d="M174.093 47.0966V36.7451H176.113V45.2929H180.812V47.0966H174.093Z" fill="#687280"/>
<path d="M86.6493 21.8192V24.36H90.7268V26.1637H86.6493V30.3461H84.6289V19.9946H91.4159V21.7983L86.6493 21.8192Z" fill="#687280"/>
<path d="M99.1425 29.3633C98.7834 29.7259 98.3529 30.0099 97.8783 30.1971C97.4038 30.3843 96.8956 30.4706 96.386 30.4508C95.8741 30.47 95.3637 30.3833 94.8867 30.1962C94.4097 30.0091 93.9764 29.7256 93.6137 29.3633C92.5696 28.3177 92.5696 27.1676 92.5696 25.1809C92.5696 23.1943 92.5696 22.0441 93.6137 20.9985C93.976 20.6353 94.4091 20.3508 94.8861 20.1628C95.3631 19.9748 95.8737 19.8873 96.386 19.9058C96.896 19.887 97.4043 19.9743 97.8788 20.1624C98.3533 20.3505 98.7836 20.6352 99.1425 20.9985C100.187 22.0441 100.187 23.1943 100.187 25.1809C100.187 27.1676 100.176 28.3282 99.1425 29.3633ZM97.6755 22.2846C97.5138 22.1038 97.3146 21.9606 97.0919 21.8649C96.8691 21.7691 96.6282 21.7233 96.386 21.7304C96.1416 21.7248 95.8988 21.7713 95.6738 21.8668C95.4488 21.9624 95.2466 22.1048 95.0808 22.2846C94.7049 22.7185 94.5587 23.2152 94.5587 25.1914C94.5587 27.1676 94.6788 27.6485 95.0808 28.0825C95.2456 28.2646 95.4472 28.4096 95.6722 28.5078C95.8972 28.606 96.1405 28.6553 96.386 28.6523C96.6293 28.6568 96.8708 28.6082 97.0935 28.5098C97.3162 28.4113 97.5148 28.2655 97.6755 28.0825C98.0566 27.6485 98.1976 27.1676 98.1976 25.1914C98.1976 23.2152 98.0566 22.7185 97.6755 22.2846Z" fill="#687280"/>
<path d="M107.768 30.3671L105.747 26.237H104.296V30.3671H102.281V20.0156H106.332C108.42 20.0156 109.684 21.4533 109.684 23.1838C109.7 23.7798 109.526 24.3655 109.186 24.8548C108.846 25.3442 108.358 25.7113 107.794 25.9024L110.101 30.3671H107.768ZM106.201 21.8193H104.296V24.5535H106.196C106.382 24.5651 106.569 24.5383 106.745 24.4748C106.921 24.4113 107.081 24.3125 107.217 24.1844C107.354 24.0563 107.462 23.9017 107.536 23.7301C107.61 23.5584 107.648 23.3734 107.648 23.1864C107.648 22.9994 107.61 22.8144 107.536 22.6428C107.462 22.4711 107.354 22.3165 107.217 22.1884C107.081 22.0603 106.921 21.9615 106.745 21.898C106.569 21.8345 106.382 21.8077 106.196 21.8193H106.201Z" fill="#687280"/>
<path d="M114.633 30.4508C113.067 30.4508 111.871 30.1162 110.858 29.0863L112.163 27.7793C112.494 28.0861 112.883 28.3233 113.308 28.4768C113.732 28.6304 114.182 28.6972 114.633 28.6733C115.839 28.6733 116.476 28.208 116.476 27.3767C116.484 27.2196 116.46 27.0626 116.405 26.9151C116.35 26.7677 116.266 26.633 116.157 26.5193C115.897 26.2991 115.569 26.1754 115.228 26.1691L113.996 25.9809C113.252 25.921 112.548 25.62 111.991 25.1235C111.735 24.8532 111.537 24.5333 111.41 24.1835C111.282 23.8337 111.228 23.4615 111.25 23.0898C111.25 21.2443 112.618 19.953 114.852 19.953C115.461 19.9127 116.072 19.9993 116.646 20.2071C117.22 20.415 117.745 20.7396 118.188 21.1606L116.925 22.3997C116.637 22.1455 116.301 21.9517 115.937 21.8296C115.573 21.7074 115.188 21.6595 114.805 21.6887C113.73 21.6887 113.239 22.2846 113.239 22.9957C113.232 23.1326 113.254 23.2695 113.304 23.3974C113.353 23.5253 113.429 23.6414 113.526 23.738C113.793 23.9633 114.123 24.1002 114.471 24.1301L115.703 24.3183C116.435 24.3614 117.132 24.6485 117.682 25.1339C117.961 25.4202 118.177 25.7625 118.314 26.1383C118.452 26.514 118.509 26.9147 118.48 27.314C118.465 29.3163 116.81 30.4508 114.633 30.4508Z" fill="#687280"/>
<path d="M123.847 30.4509C123.336 30.4692 122.826 30.3821 122.349 30.1951C121.872 30.008 121.438 29.725 121.075 29.3635C120.031 28.3179 120.031 27.1677 120.031 25.1811C120.031 23.1944 120.031 22.0443 121.075 20.9987C121.438 20.6362 121.871 20.3522 122.348 20.1643C122.825 19.9763 123.335 19.8884 123.847 19.906C125.779 19.906 127.257 21.0144 127.632 23.1787H125.596C125.54 22.7636 125.332 22.384 125.013 22.1128C124.694 21.8417 124.287 21.6981 123.868 21.7097C123.628 21.6985 123.387 21.7394 123.164 21.8296C122.941 21.9199 122.739 22.0573 122.574 22.2325C122.198 22.6664 122.051 23.1787 122.051 25.1549C122.051 27.1311 122.182 27.6382 122.574 28.0774C122.739 28.2526 122.941 28.39 123.164 28.4802C123.387 28.5705 123.628 28.6114 123.868 28.6002C124.288 28.6132 124.698 28.4704 125.019 28.1992C125.34 27.9281 125.549 27.5476 125.607 27.1311H127.653C127.257 29.3478 125.763 30.4509 123.847 30.4509Z" fill="#687280"/>
<path d="M134.905 30.3668V26.059H131.407V30.393H129.392V20.0415H131.407V24.271H134.905V20.0415H136.925V30.393L134.905 30.3668Z" fill="#687280"/>
<path d="M142.992 30.4507C140.873 30.4507 139.187 29.013 139.187 26.7911V19.9946H141.207V26.7231C141.207 27.9151 141.901 28.6313 142.992 28.6313C143.241 28.6432 143.49 28.6011 143.721 28.508C143.952 28.4148 144.16 28.2727 144.331 28.0915C144.502 27.9103 144.632 27.6942 144.712 27.458C144.792 27.2218 144.82 26.9711 144.794 26.7231V20.0155H146.793V26.812C146.793 29.013 145.112 30.4507 142.992 30.4507Z" fill="#687280"/>
<path d="M155.167 30.3671L151.074 24.0151V30.3671H149.059V20.0156H150.855L154.948 26.352V20.0156H156.968V30.3671H155.167Z" fill="#687280"/>
<path d="M165.76 29.2743C165.005 30.0126 163.996 30.4332 162.94 30.4497C161.885 30.4663 160.863 30.0775 160.085 29.3632C159.041 28.3176 159.041 27.1674 159.041 25.1808C159.041 23.1941 159.041 22.044 160.085 20.9984C160.447 20.6377 160.879 20.3548 161.354 20.1669C161.828 19.9791 162.337 19.8902 162.847 19.9057C163.796 19.8548 164.728 20.1701 165.451 20.7867C166.175 21.4033 166.635 22.2743 166.736 23.2203H164.706C164.647 22.7785 164.422 22.3759 164.076 22.095C163.731 21.8141 163.291 21.6761 162.847 21.7094C162.604 21.7042 162.363 21.751 162.14 21.8466C161.917 21.9421 161.716 22.0843 161.552 22.2636C161.176 22.6975 161.061 23.1941 161.061 25.1703C161.061 27.1465 161.176 27.6536 161.552 28.0928C161.719 28.2669 161.92 28.4036 162.143 28.4937C162.367 28.5839 162.606 28.6254 162.847 28.6156C163.114 28.6279 163.381 28.582 163.629 28.4809C163.877 28.3798 164.1 28.2259 164.283 28.0301C164.606 27.6455 164.773 27.1522 164.747 26.6499V26.2734H162.847V24.5743H166.752V26.0852C166.752 27.6275 166.517 28.4901 165.76 29.2743Z" fill="#687280"/>
<path d="M171.67 30.4508C170.104 30.4508 168.914 30.1162 167.896 29.0863L169.201 27.7792C169.535 28.084 169.928 28.3183 170.355 28.4683C170.782 28.6183 171.234 28.6809 171.686 28.6523C172.887 28.6523 173.529 28.187 173.529 27.3558C173.536 27.1983 173.511 27.0411 173.455 26.8937C173.399 26.7463 173.314 26.6118 173.205 26.4984C172.947 26.277 172.62 26.153 172.281 26.1481L171.044 25.9599C170.302 25.9 169.599 25.5989 169.044 25.1025C168.787 24.833 168.589 24.5132 168.461 24.1632C168.334 23.8133 168.28 23.4407 168.303 23.0688C168.303 21.2233 169.665 19.932 171.9 19.932C172.51 19.8917 173.122 19.9782 173.697 20.186C174.272 20.3938 174.797 20.7185 175.241 21.1397L173.962 22.3996C173.674 22.145 173.338 21.9508 172.974 21.8287C172.61 21.7065 172.225 21.6589 171.842 21.6886C170.767 21.6886 170.276 22.2846 170.276 22.9956C170.269 23.1331 170.291 23.2705 170.342 23.3986C170.392 23.5267 170.47 23.6424 170.569 23.738C170.835 23.9644 171.165 24.1015 171.514 24.1301L172.746 24.3183C173.476 24.3601 174.172 24.6474 174.719 25.1339C175 25.4194 175.216 25.7615 175.354 26.1375C175.491 26.5135 175.547 26.9146 175.518 27.314C175.502 29.3163 173.847 30.4508 171.67 30.4508Z" fill="#687280"/>
<path d="M177.068 27.1048V25.3481H181.537V27.1048H177.068Z" fill="#687280"/>
<path d="M38.1116 40.3369L28.025 34.9206L12.5506 28.3699L21.4938 19.8326L11.637 16.748" stroke="#B8D936" stroke-width="0.97" stroke-miterlimit="10"/>
<path d="M17.7715 11.2222L26.1091 13.7839" stroke="#B8D936" stroke-width="0.97" stroke-miterlimit="10"/>
<path d="M40.1792 16.9469L49.1537 5.85303" stroke="#B8D936" stroke-width="0.97" stroke-miterlimit="10"/>
<path d="M68.9456 19.9529L53.6017 17.6787L41.1658 26.1429L38.1116 40.3369L30.8965 51.1955L41.1449 59.6492" stroke="#B8D936" stroke-width="0.97" stroke-miterlimit="10"/>
<path d="M14.7381 68.6202L16.132 52.8369L23.0914 48.3669L14.4771 38.2821L28.025 34.9204L28.9439 24.7363L21.3894 19.7644L26.109 13.7836L40.179 16.9465L53.6017 17.6784L56.7446 9.01562" stroke="#B8D936" stroke-width="0.97" stroke-miterlimit="10"/>
<path d="M2.46924 39.1919L14.4771 38.2822" stroke="#B8D936" stroke-width="0.97" stroke-miterlimit="10"/>
<path d="M6.88097 23.4922L12.5769 28.3542L3.83203 31.0885" stroke="#B8D936" stroke-width="0.97" stroke-miterlimit="10"/>
<path d="M24.95 7.2488L26.109 13.7838L32.8542 4.97461" stroke="#B8D936" stroke-width="0.97" stroke-miterlimit="10"/>
<path d="M41.0195 4.4624L40.179 16.9469L41.1657 26.143L28.9438 24.7366" stroke="#B8D936" stroke-width="0.97" stroke-miterlimit="10"/>
<path d="M63.4221 13.8677L53.6018 17.6789" stroke="#B8D936" stroke-width="0.97" stroke-miterlimit="10"/>
<path d="M21.379 73.3777L14.5972 68.6202L9.16235 62.4616L5.158 55.3045L2.81387 47.4206L2.34399 39.1865L3.6753 31.0987L6.77123 23.4815L11.496 16.7635L17.6461 11.2375L24.783 7.24853L32.7499 4.97957L40.957 4.48291L49.1223 5.84742L56.7603 8.98946L63.4325 13.8306L68.9717 19.916" stroke="#5A78AF" stroke-width="0.97" stroke-miterlimit="10"/>
<path d="M84.5819 74.6068C84.0135 73.5948 83.3732 72.6251 82.6658 71.7052C81.9297 70.7799 80.8229 68.8873 73.4407 66.8484C71.2897 66.2576 69.1597 65.7453 66.9043 65.3532C66.9043 65.3532 66.9043 63.7116 66.8782 63.6698C70.7677 64.1926 72.621 60.1408 73.3363 57.0354C74.0515 53.93 75.4246 50.5631 75.2471 47.1963C75.1059 46.4649 75.0204 45.7239 74.9913 44.9796C74.9947 44.8591 75.014 44.7395 75.0487 44.6241L75.08 44.5509V44.5195L75.1166 44.4307C75.1688 44.3156 75.2158 44.1954 75.2575 44.0751C75.4183 43.6001 75.5029 43.1025 75.5081 42.6008C75.4903 41.7181 75.3676 40.8406 75.1427 39.9868L74.6571 37.6551C74.3603 35.9802 73.8111 34.3602 73.0283 32.8506C72.2177 31.2856 71.0117 29.9607 69.5303 29.008L69.5878 29.0498C68.0268 27.9449 66.2459 27.1906 64.367 26.8384C62.5348 26.4555 60.6506 26.3901 58.7964 26.6449C57.8685 26.7779 56.9546 26.9948 56.0659 27.2932C55.1835 27.6135 54.3338 28.0179 53.5286 28.5009C51.9295 29.4864 50.5532 30.7952 49.4877 32.3435C48.4436 33.8754 47.6635 35.5719 47.1801 37.3624C46.7106 39.1335 46.4651 40.9567 46.4492 42.7891C46.3801 46.4388 47.0921 50.0611 48.5375 53.4124C48.914 54.2422 49.352 55.0426 49.8479 55.8068C50.3303 56.5088 50.6839 57.2913 50.8921 58.1176C50.9286 58.3267 50.9809 58.5358 51.0017 58.7502L51.0435 59.0691C51.0435 59.1737 51.0435 59.2625 51.0435 59.3566C51.0195 59.7869 50.9654 60.2149 50.8817 60.6375C50.7178 61.5001 50.4963 62.3507 50.2186 63.1835C49.9692 64.0146 49.6185 64.8118 49.1745 65.5571C49.0647 65.7288 48.9369 65.8882 48.7933 66.0328L48.6941 66.1374L48.5793 66.2106L48.4697 66.2838L48.3183 66.3517C47.9215 66.5347 47.509 66.7125 47.1018 66.8745C47.1018 66.8745 38.8634 70.3041 38.4562 70.4975C38.038 70.6758 37.6391 70.8966 37.2658 71.1563C36.5748 71.7536 35.9858 72.46 35.5221 73.2475C35.1932 73.7441 32.9117 78.5487 31.3455 81.9783H31.9563C33.5225 78.5487 35.7414 73.7441 35.9502 73.4409C36.409 72.6942 36.9855 72.0268 37.6574 71.4647C38.0195 71.2208 38.4062 71.0158 38.8112 70.853C39.2132 70.6701 47.509 67.3973 47.509 67.3973C47.9215 67.23 48.3391 67.0627 48.7516 66.8745L49.0805 66.702L49.2476 66.5922L49.3833 66.4615C49.6009 66.232 49.7775 65.9668 49.9054 65.6773C50.37 64.6317 50.5371 64.1926 50.8451 63.3352C51.1238 62.4791 51.3471 61.606 51.5134 60.7212C51.6123 60.2664 51.6786 59.8052 51.7118 59.341C51.7118 59.2207 51.7118 59.0848 51.7118 58.9645L51.6752 58.6195C51.6752 58.3895 51.6021 58.1594 51.5656 57.9294C51.4667 57.4651 51.3179 57.0128 51.1218 56.5806C50.9238 56.1658 50.7025 55.7625 50.4588 55.3729C49.9951 54.6312 49.5884 53.8552 49.2423 53.0517C47.9055 49.7959 47.2806 46.2912 47.4098 42.7734C47.5508 39.2967 48.454 35.7835 50.464 32.997C51.4557 31.6102 52.7253 30.4457 54.1916 29.5779C54.9257 29.1563 55.6984 28.8061 56.4992 28.5323C57.3081 28.2823 58.1382 28.1073 58.9791 28.0095C60.672 27.8092 62.3866 27.9012 64.0485 28.2813C65.6903 28.6226 67.2405 29.3106 68.5958 30.2993H68.6219H68.6532C69.8762 31.1233 70.8625 32.2534 71.5142 33.5773C72.1869 34.9446 72.6498 36.4057 72.8873 37.9113L73.3363 40.3162C73.4094 40.7292 73.4981 41.0899 73.5503 41.4507C73.6065 41.7962 73.6293 42.1464 73.6182 42.4963C73.611 42.8014 73.5546 43.1033 73.4511 43.3903C73.425 43.4635 73.3989 43.5262 73.3676 43.5942L73.2997 43.751L73.2162 43.9601C73.1276 44.2278 73.0715 44.5051 73.0491 44.7862C73.0464 45.6518 73.1197 46.516 73.2684 47.3688C73.1744 50.3435 71.1175 59.9474 68.5279 61.2126C67.3324 61.7981 64.6176 61.1342 64.6176 61.1342L64.7429 67.3189L66.4814 67.6692C68.5332 68.0665 70.658 68.6155 72.715 69.2376C73.7592 69.546 74.8033 69.8231 75.8057 70.2048C79.0687 71.4438 79.8832 72.5156 80.5044 73.3416C81.1171 74.1716 81.6685 75.0453 82.1542 75.9556L82.363 76.3268H85.4955C85.2136 75.7517 84.9108 75.2028 84.5819 74.6068Z" fill="#5A78AF"/>
<path d="M86.0229 54.5413V57.5527H89.6409V58.3369H86.0229V61.9494H85.1406V53.7676H90.2674V54.5518L86.0229 54.5413Z" fill="#687280"/>
<path d="M94.794 62.0175C94.4194 62.0392 94.0444 61.9831 93.6925 61.8527C93.3406 61.7222 93.0195 61.5203 92.7493 61.2596C92.4791 60.9988 92.2657 60.6849 92.1226 60.3376C91.9794 59.9903 91.9095 59.6171 91.9173 59.2415V53.7677H92.7996V59.1839C92.7858 59.4558 92.8273 59.7277 92.9216 59.9831C93.016 60.2384 93.1612 60.4719 93.3485 60.6692C93.5358 60.8666 93.7612 61.0238 94.0111 61.1311C94.2609 61.2385 94.5299 61.2939 94.8018 61.2939C95.0737 61.2939 95.3427 61.2385 95.5926 61.1311C95.8424 61.0238 96.0678 60.8666 96.2551 60.6692C96.4424 60.4719 96.5876 60.2384 96.682 59.9831C96.7764 59.7277 96.8179 59.4558 96.804 59.1839V53.7677H97.6863V59.2519C97.6913 59.6277 97.6188 60.0004 97.4735 60.3469C97.3282 60.6933 97.1131 61.0061 96.8417 61.2656C96.5703 61.5251 96.2484 61.7258 95.8961 61.8552C95.5438 61.9846 95.1686 62.0398 94.794 62.0175ZM93.1494 52.8737V51.8281H93.9848V52.8737H93.1494ZM95.6084 52.8737V51.8281H96.4438V52.8737H95.6084Z" fill="#687280"/>
<path d="M104.818 61.9494L102.938 58.2898H100.954V61.9494H100.072V53.7676H103.236C104.677 53.7676 105.684 54.6302 105.684 56.047C105.706 56.5699 105.535 57.0825 105.204 57.4874C104.873 57.8923 104.405 58.1611 103.888 58.2428L105.846 61.9599L104.818 61.9494ZM103.147 54.5413H100.954V57.5422H103.147C104.108 57.5422 104.792 57.0455 104.792 56.047C104.792 55.0484 104.118 54.5413 103.147 54.5413Z" fill="#687280"/>
<path d="M115.625 61.087C115.346 61.3922 115.005 61.6344 114.625 61.7976C114.245 61.9607 113.835 62.0411 113.422 62.0333C113.041 62.0441 112.663 61.9785 112.309 61.8402C111.955 61.7019 111.632 61.4938 111.359 61.2282C110.581 60.4544 110.534 59.7434 110.534 57.8665C110.534 55.9897 110.581 55.2787 111.359 54.5102C111.749 54.1444 112.23 53.8906 112.752 53.7756C113.274 53.6606 113.817 53.6886 114.324 53.8566C114.831 54.0247 115.283 54.3265 115.634 54.7304C115.984 55.1344 116.219 55.6254 116.314 56.1518H115.432C115.357 55.6764 115.111 55.2446 114.741 54.9376C114.371 54.6305 113.902 54.4692 113.422 54.484C113.157 54.4778 112.895 54.5255 112.65 54.6244C112.405 54.7233 112.182 54.8712 111.996 55.0591C111.474 55.5819 111.417 56.1884 111.417 57.8665C111.417 59.5447 111.474 60.146 111.996 60.674C112.182 60.8629 112.404 61.0115 112.649 61.1104C112.894 61.2094 113.157 61.2566 113.422 61.2491C113.718 61.2549 114.012 61.1951 114.283 61.074C114.554 60.9529 114.794 60.7735 114.988 60.5485C115.322 60.1289 115.488 59.5994 115.452 59.0638V58.4312H113.422V57.6836H116.335V58.9958C116.368 59.3746 116.322 59.7562 116.2 60.1162C116.077 60.4763 115.882 60.8069 115.625 61.087Z" fill="#687280"/>
<path d="M118.528 61.9494V53.7676H123.654V54.5518H119.41V57.4272H123.028V58.2062H119.41V61.1652H123.654V61.9494H118.528Z" fill="#687280"/>
<path d="M127.747 62.0174C127.227 62.0517 126.706 61.9727 126.219 61.7859C125.732 61.5991 125.292 61.3088 124.928 60.9352L125.523 60.3497C125.81 60.6539 126.16 60.8909 126.549 61.0436C126.938 61.1964 127.356 61.2611 127.773 61.2332C128.99 61.2332 129.731 60.6843 129.731 59.7171C129.748 59.5232 129.72 59.328 129.649 59.1466C129.579 58.9652 129.467 58.8027 129.324 58.6715C129.021 58.4199 128.642 58.2781 128.248 58.2689L127.282 58.1278C126.733 58.07 126.211 57.8559 125.779 57.5109C125.565 57.317 125.397 57.0781 125.287 56.8114C125.177 56.5447 125.127 56.2569 125.142 55.9686C125.142 54.578 126.149 53.6683 127.784 53.6683C128.232 53.6458 128.681 53.7133 129.103 53.8668C129.525 54.0203 129.913 54.2568 130.242 54.5623L129.673 55.1269C129.418 54.8824 129.115 54.693 128.784 54.5707C128.453 54.4484 128.1 54.3957 127.747 54.4159C126.635 54.4159 125.998 55.0223 125.998 55.9425C125.985 56.1195 126.012 56.297 126.076 56.4624C126.14 56.6278 126.24 56.777 126.369 56.8992C126.685 57.1343 127.058 57.2805 127.449 57.3227L128.41 57.4743C128.96 57.4985 129.487 57.7044 129.908 58.0598C130.134 58.2619 130.312 58.5105 130.432 58.7885C130.552 59.0665 130.61 59.3673 130.603 59.67C130.603 61.1287 129.475 62.0174 127.747 62.0174Z" fill="#687280"/>
<path d="M135.349 62.0174C134.974 62.0399 134.599 61.9843 134.247 61.8542C133.894 61.724 133.573 61.5221 133.303 61.2612C133.032 61.0003 132.819 60.6861 132.676 60.3384C132.533 59.9908 132.464 59.6172 132.472 59.2413V53.7676H133.355V59.1838C133.355 59.7149 133.565 60.2242 133.94 60.5997C134.315 60.9752 134.824 61.1861 135.354 61.1861C135.885 61.1861 136.393 60.9752 136.768 60.5997C137.143 60.2242 137.354 59.7149 137.354 59.1838V53.7676H138.236V59.2518C138.242 59.6273 138.17 59.9999 138.025 60.3464C137.881 60.6928 137.666 61.0056 137.395 61.2652C137.124 61.5248 136.802 61.7256 136.45 61.855C136.098 61.9845 135.723 62.0397 135.349 62.0174Z" fill="#687280"/>
<path d="M145.916 61.9494L141.531 55.3778V61.9494H140.648V53.7676H141.484L145.869 60.3131V53.7676H146.752V61.9599L145.916 61.9494Z" fill="#687280"/>
<path d="M154.28 61.0868C154.003 61.3807 153.665 61.6103 153.29 61.7594C152.914 61.9084 152.511 61.9733 152.108 61.9494H149.278V53.7675H152.108C152.511 53.7436 152.914 53.8085 153.29 53.9575C153.665 54.1066 154.003 54.3362 154.28 54.6302C155.011 55.4144 155.011 56.6063 155.011 57.8611C155.011 59.1158 155.011 60.3026 154.28 61.0868ZM153.585 55.1373C153.373 54.9276 153.118 54.7659 152.838 54.6631C152.558 54.5603 152.259 54.5187 151.962 54.5413H150.161V61.1652H151.962C152.26 61.187 152.559 61.1447 152.839 61.041C153.119 60.9373 153.374 60.7746 153.585 60.564C154.108 60.0046 154.108 58.9956 154.108 57.8506C154.108 56.7057 154.118 55.7019 153.585 55.1373Z" fill="#687280"/>
<path d="M162.027 61.9494V58.2062H158.106V61.9494H157.224V53.7676H158.106V57.4272H162.027V53.7676H162.909V61.9599L162.027 61.9494Z" fill="#687280"/>
<path d="M165.441 61.9494V53.7676H170.568V54.5518H166.318V57.4272H169.942V58.2062H166.318V61.1652H170.568V61.9494H165.441Z" fill="#687280"/>
<path d="M172.536 61.9494V53.7676H173.418V61.9599L172.536 61.9494Z" fill="#687280"/>
<path d="M178.374 54.5413V61.9494H177.491V54.5413H175.105V53.7676H180.765V54.5518L178.374 54.5413Z" fill="#687280"/>
<path d="M21.5043 75.8665C22.8739 75.8665 23.9842 74.7547 23.9842 73.3832C23.9842 72.0117 22.8739 70.8999 21.5043 70.8999C20.1347 70.8999 19.0244 72.0117 19.0244 73.3832C19.0244 74.7547 20.1347 75.8665 21.5043 75.8665Z" fill="#B7D836"/>
<path d="M14.7382 71.1092C16.1078 71.1092 17.2181 69.9974 17.2181 68.6259C17.2181 67.2544 16.1078 66.1426 14.7382 66.1426C13.3686 66.1426 12.2583 67.2544 12.2583 68.6259C12.2583 69.9974 13.3686 71.1092 14.7382 71.1092Z" fill="#8EB07A"/>
<path d="M9.31899 64.9715C10.6886 64.9715 11.7989 63.8597 11.7989 62.4882C11.7989 61.1167 10.6886 60.0049 9.31899 60.0049C7.94939 60.0049 6.83911 61.1167 6.83911 62.4882C6.83911 63.8597 7.94939 64.9715 9.31899 64.9715Z" fill="#72929B"/>
<path d="M5.29384 57.7879C6.66344 57.7879 7.77372 56.6761 7.77372 55.3046C7.77372 53.9331 6.66344 52.8213 5.29384 52.8213C3.92424 52.8213 2.81396 53.9331 2.81396 55.3046C2.81396 56.6761 3.92424 57.7879 5.29384 57.7879Z" fill="#5A78AF"/>
<path d="M2.93398 49.8939C4.30358 49.8939 5.41385 48.7821 5.41385 47.4106C5.41385 46.0391 4.30358 44.9272 2.93398 44.9272C1.56438 44.9272 0.454102 46.0391 0.454102 47.4106C0.454102 48.7821 1.56438 49.8939 2.93398 49.8939Z" fill="#5A78AF"/>
<path d="M9.34511 46.8719C10.7147 46.8719 11.825 45.7601 11.825 44.3886C11.825 43.0171 10.7147 41.9053 9.34511 41.9053C7.97551 41.9053 6.86523 43.0171 6.86523 44.3886C6.86523 45.7601 7.97551 46.8719 9.34511 46.8719Z" fill="#5A78AF"/>
<path d="M2.47988 41.6907C3.84948 41.6907 4.95975 40.5789 4.95975 39.2074C4.95975 37.8359 3.84948 36.7241 2.47988 36.7241C1.11028 36.7241 0 37.8359 0 39.2074C0 40.5789 1.11028 41.6907 2.47988 41.6907Z" fill="#5A78AF"/>
<path d="M3.82143 33.577C5.19103 33.577 6.3013 32.4652 6.3013 31.0937C6.3013 29.7222 5.19103 28.6104 3.82143 28.6104C2.45183 28.6104 1.34155 29.7222 1.34155 31.0937C1.34155 32.4652 2.45183 33.577 3.82143 33.577Z" fill="#5A78AF"/>
<path d="M6.90175 25.9652C8.27135 25.9652 9.38163 24.8533 9.38163 23.4818C9.38163 22.1104 8.27135 20.9985 6.90175 20.9985C5.53215 20.9985 4.42188 22.1104 4.42188 23.4818C4.42188 24.8533 5.53215 25.9652 6.90175 25.9652Z" fill="#5A78AF"/>
<path d="M11.6215 19.2366C12.9911 19.2366 14.1014 18.1248 14.1014 16.7533C14.1014 15.3818 12.9911 14.27 11.6215 14.27C10.2519 14.27 9.1416 15.3818 9.1416 16.7533C9.1416 18.1248 10.2519 19.2366 11.6215 19.2366Z" fill="#5A78AF"/>
<path d="M17.7768 13.7264C19.1463 13.7264 20.2566 12.6146 20.2566 11.2431C20.2566 9.87158 19.1463 8.75977 17.7768 8.75977C16.4072 8.75977 15.2969 9.87158 15.2969 11.2431C15.2969 12.6146 16.4072 13.7264 17.7768 13.7264Z" fill="#5A78AF"/>
<path d="M24.8978 9.73224C26.2674 9.73224 27.3777 8.62043 27.3777 7.24893C27.3777 5.87744 26.2674 4.76562 24.8978 4.76562C23.5282 4.76562 22.418 5.87744 22.418 7.24893C22.418 8.62043 23.5282 9.73224 24.8978 9.73224Z" fill="#5A78AF"/>
<path d="M26.1039 16.2464C27.4735 16.2464 28.5838 15.1346 28.5838 13.7631C28.5838 12.3916 27.4735 11.2798 26.1039 11.2798C24.7343 11.2798 23.624 12.3916 23.624 13.7631C23.624 15.1346 24.7343 16.2464 26.1039 16.2464Z" fill="#5A78AF"/>
<path d="M32.849 7.48908C34.2186 7.48908 35.3289 6.37726 35.3289 5.00577C35.3289 3.63428 34.2186 2.52246 32.849 2.52246C31.4794 2.52246 30.3691 3.63428 30.3691 5.00577C30.3691 6.37726 31.4794 7.48908 32.849 7.48908Z" fill="#5A78AF"/>
<path d="M49.1642 8.36213C50.5338 8.36213 51.6441 7.25031 51.6441 5.87882C51.6441 4.50732 50.5338 3.39551 49.1642 3.39551C47.7946 3.39551 46.6843 4.50732 46.6843 5.87882C46.6843 7.25031 47.7946 8.36213 49.1642 8.36213Z" fill="#5A78AF"/>
<path d="M56.6925 11.5198C58.0621 11.5198 59.1724 10.408 59.1724 9.03653C59.1724 7.66504 58.0621 6.55322 56.6925 6.55322C55.3229 6.55322 54.2126 7.66504 54.2126 9.03653C54.2126 10.408 55.3229 11.5198 56.6925 11.5198Z" fill="#72929B"/>
<path d="M68.9508 22.41C70.3204 22.41 71.4307 21.2982 71.4307 19.9267C71.4307 18.5552 70.3204 17.4434 68.9508 17.4434C67.5812 17.4434 66.4709 18.5552 66.4709 19.9267C66.4709 21.2982 67.5812 22.41 68.9508 22.41Z" fill="#B8D936"/>
<path d="M63.4899 16.3143C64.8595 16.3143 65.9698 15.2025 65.9698 13.831C65.9698 12.4595 64.8595 11.3477 63.4899 11.3477C62.1203 11.3477 61.01 12.4595 61.01 13.831C61.01 15.2025 62.1203 16.3143 63.4899 16.3143Z" fill="#8EB07A"/>
<path d="M40.9987 6.96662C42.3683 6.96662 43.4785 5.85481 43.4785 4.48331C43.4785 3.11182 42.3683 2 40.9987 2C39.6291 2 38.5188 3.11182 38.5188 4.48331C38.5188 5.85481 39.6291 6.96662 40.9987 6.96662Z" fill="#5A78AF"/>
<path d="M53.5547 20.5332C55.1146 20.5332 56.3791 19.2669 56.3791 17.7048C56.3791 16.1428 55.1146 14.8765 53.5547 14.8765C51.9948 14.8765 50.7302 16.1428 50.7302 17.7048C50.7302 19.2669 51.9948 20.5332 53.5547 20.5332Z" fill="#B8D936"/>
<path d="M21.3894 22.6347C22.9493 22.6347 24.2138 21.3684 24.2138 19.8064C24.2138 18.2443 22.9493 16.978 21.3894 16.978C19.8295 16.978 18.5649 18.2443 18.5649 19.8064C18.5649 21.3684 19.8295 22.6347 21.3894 22.6347Z" fill="#5A78AF"/>
<path d="M12.5036 31.1928C14.0635 31.1928 15.3281 29.9266 15.3281 28.3645C15.3281 26.8024 14.0635 25.5361 12.5036 25.5361C10.9437 25.5361 9.6792 26.8024 9.6792 28.3645C9.6792 29.9266 10.9437 31.1928 12.5036 31.1928Z" fill="#5A78AF"/>
<path d="M14.4302 41.1211C15.9901 41.1211 17.2546 39.8548 17.2546 38.2927C17.2546 36.7306 15.9901 35.4644 14.4302 35.4644C12.8703 35.4644 11.6057 36.7306 11.6057 38.2927C11.6057 39.8548 12.8703 41.1211 14.4302 41.1211Z" fill="#5A78AF"/>
<path d="M16.1531 55.6865C17.713 55.6865 18.9775 54.4202 18.9775 52.8581C18.9775 51.2961 17.713 50.0298 16.1531 50.0298C14.5932 50.0298 13.3286 51.2961 13.3286 52.8581C13.3286 54.4202 14.5932 55.6865 16.1531 55.6865Z" fill="#8EB07A"/>
<path d="M41.1555 62.5039C42.7154 62.5039 43.9799 61.2376 43.9799 59.6755C43.9799 58.1135 42.7154 56.8472 41.1555 56.8472C39.5956 56.8472 38.3311 58.1135 38.3311 59.6755C38.3311 61.2376 39.5956 62.5039 41.1555 62.5039Z" fill="#B7D836"/>
<path d="M32.6767 67.6011C34.2366 67.6011 35.5012 66.3348 35.5012 64.7727C35.5012 63.2106 34.2366 61.9443 32.6767 61.9443C31.1168 61.9443 29.8523 63.2106 29.8523 64.7727C29.8523 66.3348 31.1168 67.6011 32.6767 67.6011Z" fill="#B7D836"/>
<path d="M24.0626 68.8768C25.4322 68.8768 26.5425 67.765 26.5425 66.3935C26.5425 65.022 25.4322 63.9102 24.0626 63.9102C22.693 63.9102 21.5828 65.022 21.5828 66.3935C21.5828 67.765 22.693 68.8768 24.0626 68.8768Z" fill="#B7D836"/>
<path d="M30.8967 54.3273C32.6123 54.3273 34.003 52.9346 34.003 51.2166C34.003 49.4987 32.6123 48.106 30.8967 48.106C29.1811 48.106 27.7903 49.4987 27.7903 51.2166C27.7903 52.9346 29.1811 54.3273 30.8967 54.3273Z" fill="#B8D936"/>
<path d="M23.0497 51.5041C24.7653 51.5041 26.1561 50.1114 26.1561 48.3934C26.1561 46.6754 24.7653 45.2827 23.0497 45.2827C21.3341 45.2827 19.9434 46.6754 19.9434 48.3934C19.9434 50.1114 21.3341 51.5041 23.0497 51.5041Z" fill="#8EB07A"/>
<path d="M28.9128 27.8473C30.6284 27.8473 32.0191 26.4546 32.0191 24.7367C32.0191 23.0187 30.6284 21.626 28.9128 21.626C27.1972 21.626 25.8064 23.0187 25.8064 24.7367C25.8064 26.4546 27.1972 27.8473 28.9128 27.8473Z" fill="#72929B"/>
<path d="M40.1635 20.0314C41.8791 20.0314 43.2699 18.6387 43.2699 16.9207C43.2699 15.2028 41.8791 13.8101 40.1635 13.8101C38.4479 13.8101 37.0571 15.2028 37.0571 16.9207C37.0571 18.6387 38.4479 20.0314 40.1635 20.0314Z" fill="#72929B"/>
<path d="M41.1971 29.5618C43.0741 29.5618 44.5958 28.038 44.5958 26.1583C44.5958 24.2787 43.0741 22.7549 41.1971 22.7549C39.32 22.7549 37.7983 24.2787 37.7983 26.1583C37.7983 28.038 39.32 29.5618 41.1971 29.5618Z" fill="#B8D936"/>
<path d="M38.0961 44.0697C40.1635 44.0697 41.8394 42.3915 41.8394 40.3212C41.8394 38.251 40.1635 36.5728 38.0961 36.5728C36.0287 36.5728 34.3528 38.251 34.3528 40.3212C34.3528 42.3915 36.0287 44.0697 38.0961 44.0697Z" fill="#B8D936"/>
<path d="M27.9835 38.3503C29.8605 38.3503 31.3822 36.8266 31.3822 34.9469C31.3822 33.0672 29.8605 31.5435 27.9835 31.5435C26.1064 31.5435 24.5847 33.0672 24.5847 34.9469C24.5847 36.8266 26.1064 38.3503 27.9835 38.3503Z" fill="#8EB07A"/>
</svg>
