<svg width="141" height="140" viewBox="0 0 141 140" fill="none" xmlns="http://www.w3.org/2000/svg">
<circle cx="70.5" cy="68.5" r="60.5" fill="white"/>
<circle cx="70.5" cy="68.5" r="60.5" fill="#5A79AE" fill-opacity="0.1"/>
<path d="M26 24C26 21.7909 27.7909 20 30 20H110C112.209 20 114 21.7909 114 24V30H26V24Z" fill="white"/>
<path d="M26 24C26 21.7909 27.7909 20 30 20H110C112.209 20 114 21.7909 114 24V30H26V24Z" fill="#6A7484" fill-opacity="0.1"/>
<path d="M26 24C26 21.7909 27.7909 20 30 20H110C112.209 20 114 21.7909 114 24V30H26V24Z" stroke="black"/>
<path d="M26 24C26 21.7909 27.7909 20 30 20H110C112.209 20 114 21.7909 114 24V128C114 130.209 112.209 132 110 132H30C27.7909 132 26 130.209 26 128V24Z" fill="white" stroke="#333333" stroke-linejoin="round"/>
<rect x="38" y="86" width="64" height="22" rx="1" fill="white"/>
<rect x="32" y="49" width="76" height="2" rx="1" fill="white"/>
<rect x="32" y="49" width="76" height="2" rx="1" fill="#6A7484" fill-opacity="0.15"/>
<rect x="32" y="55" width="76" height="2" rx="1" fill="white"/>
<rect x="32" y="55" width="76" height="2" rx="1" fill="#6A7484" fill-opacity="0.15"/>
<rect x="32" y="61" width="76" height="2" rx="1" fill="white"/>
<rect x="32" y="61" width="76" height="2" rx="1" fill="#6A7484" fill-opacity="0.15"/>
<rect x="32" y="70" width="35" height="2" rx="1" fill="white"/>
<rect x="32" y="70" width="35" height="2" rx="1" fill="#6A7484" fill-opacity="0.15"/>
<rect x="32" y="76" width="35" height="2" rx="1" fill="white"/>
<rect x="32" y="76" width="35" height="2" rx="1" fill="#6A7484" fill-opacity="0.15"/>
<rect x="32" y="82" width="35" height="2" rx="1" fill="white"/>
<rect x="32" y="82" width="35" height="2" rx="1" fill="#6A7484" fill-opacity="0.15"/>
<rect x="32" y="88" width="35" height="2" rx="1" fill="white"/>
<rect x="32" y="88" width="35" height="2" rx="1" fill="#6A7484" fill-opacity="0.15"/>
<rect x="32" y="94" width="35" height="2" rx="1" fill="white"/>
<rect x="32" y="94" width="35" height="2" rx="1" fill="#6A7484" fill-opacity="0.15"/>
<rect x="32" y="100" width="35" height="2" rx="1" fill="white"/>
<rect x="32" y="100" width="35" height="2" rx="1" fill="#6A7484" fill-opacity="0.15"/>
<rect x="32" y="106" width="35" height="2" rx="1" fill="white"/>
<rect x="32" y="106" width="35" height="2" rx="1" fill="#6A7484" fill-opacity="0.15"/>
<rect x="32" y="112" width="35" height="2" rx="1" fill="white"/>
<rect x="32" y="112" width="35" height="2" rx="1" fill="#6A7484" fill-opacity="0.15"/>
<rect x="32" y="118" width="35" height="2" rx="1" fill="white"/>
<rect x="32" y="118" width="35" height="2" rx="1" fill="#6A7484" fill-opacity="0.15"/>
<rect x="74" y="70" width="34" height="2" rx="1" fill="white"/>
<rect x="74" y="70" width="34" height="2" rx="1" fill="#6A7484" fill-opacity="0.15"/>
<rect x="74" y="76" width="34" height="2" rx="1" fill="white"/>
<rect x="74" y="76" width="34" height="2" rx="1" fill="#6A7484" fill-opacity="0.15"/>
<rect x="74" y="82" width="34" height="2" rx="1" fill="white"/>
<rect x="74" y="82" width="34" height="2" rx="1" fill="#6A7484" fill-opacity="0.15"/>
<rect x="74" y="88" width="34" height="2" rx="1" fill="white"/>
<rect x="74" y="88" width="34" height="2" rx="1" fill="#6A7484" fill-opacity="0.15"/>
<rect x="74" y="94" width="34" height="2" rx="1" fill="white"/>
<rect x="74" y="94" width="34" height="2" rx="1" fill="#6A7484" fill-opacity="0.15"/>
<rect x="74" y="100" width="34" height="2" rx="1" fill="white"/>
<rect x="74" y="100" width="34" height="2" rx="1" fill="#6A7484" fill-opacity="0.15"/>
<rect x="74" y="106" width="34" height="2" rx="1" fill="white"/>
<rect x="74" y="106" width="34" height="2" rx="1" fill="#6A7484" fill-opacity="0.15"/>
<rect x="74" y="112" width="34" height="2" rx="1" fill="white"/>
<rect x="74" y="112" width="34" height="2" rx="1" fill="#6A7484" fill-opacity="0.15"/>
<rect x="74" y="118" width="34" height="2" rx="1" fill="white"/>
<rect x="74" y="118" width="34" height="2" rx="1" fill="#6A7484" fill-opacity="0.15"/>
<rect x="32" y="32" width="60" height="2" rx="1" fill="#6A7484"/>
<rect x="32" y="38" width="70" height="2" rx="1" fill="#6A7484"/>
<path d="M86 83C86 80.7909 87.7909 79 90 79H136C138.209 79 140 80.7909 140 83V86H86V83Z" fill="white"/>
<path d="M86 83C86 80.7909 87.7909 79 90 79H136C138.209 79 140 80.7909 140 83V86H86V83Z" fill="#6A7484" fill-opacity="0.15"/>
<path d="M99 79H90C87.7909 79 86 80.7909 86 83V86H140V83C140 80.7909 138.209 79 136 79H129M101 79H127" stroke="#333333"/>
<path d="M86 86H140V118C140 120.209 138.209 122 136 122H90C87.7909 122 86 120.209 86 118V86Z" fill="white" stroke="#333333"/>
<rect x="98" y="98" width="8" height="8" fill="#9BB923"/>
<path fill-rule="evenodd" clip-rule="evenodd" d="M91 91H99V99H91V91ZM91 100H99V108H91V100ZM99 109H91V117H99V109ZM100 91H108V99H100V91ZM108 109H100V117H108V109ZM109 91H117V99H109V91ZM117 100H109V108H117V100ZM109 109H117V117H109V109ZM126 91H118V99H126V91ZM118 100H126V108H118V100ZM126 109H118V117H126V109ZM127 91H135V99H127V91ZM135 100H127V108H135V100Z" fill="white"/>
<path fill-rule="evenodd" clip-rule="evenodd" d="M91 91H99V99H91V91ZM91 100H99V108H91V100ZM99 109H91V117H99V109ZM100 91H108V99H100V91ZM108 109H100V117H108V109ZM109 91H117V99H109V91ZM117 100H109V108H117V100ZM109 109H117V117H109V109ZM126 91H118V99H126V91ZM118 100H126V108H118V100ZM126 109H118V117H126V109ZM127 91H135V99H127V91ZM135 100H127V108H135V100Z" fill="#6A7484" fill-opacity="0.1"/>
<path d="M99 77V81.5" stroke="#333333" stroke-width="2" stroke-linecap="round"/>
<path d="M127 77V81.5" stroke="#333333" stroke-width="2" stroke-linecap="round"/>
</svg>
